<svg width="1200" height="900" viewBox="0 0 1200 900" fill="none" xmlns="http://www.w3.org/2000/svg">
  <rect width="1200" height="900" fill="#FFF7FB"/>
  <rect y="560" width="1200" height="340" fill="#FFE8F3"/>
  <circle cx="200" cy="160" r="100" fill="#FFCFE6"/>
  <path d="M0 620L260 400L430 530L610 350L1200 650V900H0V620Z" fill="#FFADD2" opacity="0.72"/>
  <path d="M0 700L300 520L540 690L760 480L1200 710V900H0V700Z" fill="#C9184A" opacity="0.28"/>
  <path d="M600 422C552 380 478 324 478 250C478 204 514 168 560 168C584 168 612 182 600 204C588 182 616 168 640 168C686 168 722 204 722 250C722 324 648 380 600 422Z" fill="#C9184A"/>
  <text x="600" y="770" text-anchor="middle" font-family="Playfair Display, serif" font-size="62" font-weight="700" fill="#21161D">Lugar visitado</text>
  <text x="600" y="826" text-anchor="middle" font-family="Nunito, sans-serif" font-size="30" fill="#7C425B">Um lugar que virou memoria</text>
</svg>
